<mxfile host="app.diagrams.net" modified="2022-09-11T22:01:17.041Z" agent="5.0 (Windows NT 10.0; Win64; x64) AppleWebKit/537.36 (KHTML, like Gecko) Chrome/105.0.0.0 Safari/537.36" etag="XM5MO_WNH22PPzabTWgh" version="20.3.0" type="github">
  <diagram id="1CdudmdVoag2Nz7i6Tcs" name="Page-1">
    <mxGraphModel dx="1902" dy="1127" grid="1" gridSize="10" guides="1" tooltips="1" connect="1" arrows="1" fold="1" page="0" pageScale="1" pageWidth="850" pageHeight="1100" background="none" math="0" shadow="0">
      <root>
        <mxCell id="0" />
        <mxCell id="1" parent="0" />
        <mxCell id="EXf6MUU_xvwRuJCJNYpw-18" style="edgeStyle=none;rounded=0;sketch=1;orthogonalLoop=1;jettySize=auto;html=1;exitX=1;exitY=0.5;exitDx=0;exitDy=0;entryX=0;entryY=0.5;entryDx=0;entryDy=0;entryPerimeter=0;endArrow=classic;endFill=1;startSize=14;endSize=14;sourcePerimeterSpacing=8;targetPerimeterSpacing=8;" edge="1" parent="1" source="EXf6MUU_xvwRuJCJNYpw-1" target="EXf6MUU_xvwRuJCJNYpw-17">
          <mxGeometry relative="1" as="geometry" />
        </mxCell>
        <mxCell id="EXf6MUU_xvwRuJCJNYpw-7" style="edgeStyle=none;rounded=0;orthogonalLoop=1;jettySize=auto;html=1;exitX=1;exitY=0.5;exitDx=0;exitDy=0;entryX=0;entryY=0.5;entryDx=0;entryDy=0;endArrow=classic;startSize=14;endSize=14;sourcePerimeterSpacing=8;targetPerimeterSpacing=8;sketch=1;endFill=1;" edge="1" parent="1" source="EXf6MUU_xvwRuJCJNYpw-4" target="EXf6MUU_xvwRuJCJNYpw-5">
          <mxGeometry relative="1" as="geometry" />
        </mxCell>
        <mxCell id="EXf6MUU_xvwRuJCJNYpw-4" value="Web&lt;br&gt;Server" style="rounded=0;whiteSpace=wrap;html=1;hachureGap=4;fillColor=#cce5ff;strokeColor=#36393d;sketch=1;fontStyle=1" vertex="1" parent="1">
          <mxGeometry x="-140" y="80" width="80" height="280" as="geometry" />
        </mxCell>
        <mxCell id="EXf6MUU_xvwRuJCJNYpw-8" style="edgeStyle=none;rounded=0;sketch=1;orthogonalLoop=1;jettySize=auto;html=1;exitX=1;exitY=0.5;exitDx=0;exitDy=0;entryX=0;entryY=0.5;entryDx=0;entryDy=0;endArrow=classic;endFill=1;startSize=14;endSize=14;sourcePerimeterSpacing=8;targetPerimeterSpacing=8;" edge="1" parent="1" source="EXf6MUU_xvwRuJCJNYpw-5" target="EXf6MUU_xvwRuJCJNYpw-1">
          <mxGeometry relative="1" as="geometry" />
        </mxCell>
        <mxCell id="EXf6MUU_xvwRuJCJNYpw-24" style="edgeStyle=orthogonalEdgeStyle;rounded=0;sketch=1;orthogonalLoop=1;jettySize=auto;html=1;exitX=0.5;exitY=1;exitDx=0;exitDy=0;entryX=0;entryY=0;entryDx=0;entryDy=52.5;entryPerimeter=0;endArrow=classic;endFill=1;startSize=14;endSize=14;sourcePerimeterSpacing=8;targetPerimeterSpacing=8;" edge="1" parent="1" source="EXf6MUU_xvwRuJCJNYpw-5" target="EXf6MUU_xvwRuJCJNYpw-21">
          <mxGeometry relative="1" as="geometry" />
        </mxCell>
        <mxCell id="EXf6MUU_xvwRuJCJNYpw-5" value="Authentication" style="rounded=0;whiteSpace=wrap;html=1;hachureGap=4;fillColor=#e1d5e7;strokeColor=#9673a6;sketch=1;fontStyle=1" vertex="1" parent="1">
          <mxGeometry x="-20" y="180" width="100" height="80" as="geometry" />
        </mxCell>
        <mxCell id="EXf6MUU_xvwRuJCJNYpw-9" value="&lt;b&gt;External API&#39;s&lt;/b&gt;" style="ellipse;shape=cloud;whiteSpace=wrap;html=1;labelBackgroundColor=none;sketch=1;hachureGap=4;fillColor=#fff2cc;strokeColor=#d6b656;" vertex="1" parent="1">
          <mxGeometry x="519" y="176" width="120" height="80" as="geometry" />
        </mxCell>
        <mxCell id="EXf6MUU_xvwRuJCJNYpw-16" style="edgeStyle=none;rounded=0;sketch=1;orthogonalLoop=1;jettySize=auto;html=1;exitX=1;exitY=0.5;exitDx=0;exitDy=0;entryX=0;entryY=0.5;entryDx=0;entryDy=0;endArrow=classic;endFill=1;startSize=14;endSize=14;sourcePerimeterSpacing=8;targetPerimeterSpacing=8;" edge="1" parent="1" source="EXf6MUU_xvwRuJCJNYpw-15" target="EXf6MUU_xvwRuJCJNYpw-4">
          <mxGeometry relative="1" as="geometry" />
        </mxCell>
        <mxCell id="EXf6MUU_xvwRuJCJNYpw-15" value="Clients&lt;br&gt;(Frontend)" style="rounded=0;whiteSpace=wrap;html=1;hachureGap=4;fillColor=#e1d5e7;strokeColor=#9673a6;sketch=1;fontStyle=1" vertex="1" parent="1">
          <mxGeometry x="-290" y="180" width="100" height="80" as="geometry" />
        </mxCell>
        <mxCell id="EXf6MUU_xvwRuJCJNYpw-22" style="edgeStyle=orthogonalEdgeStyle;rounded=0;sketch=1;orthogonalLoop=1;jettySize=auto;html=1;exitX=0.5;exitY=1;exitDx=0;exitDy=0;exitPerimeter=0;entryX=0;entryY=0;entryDx=0;entryDy=52.5;entryPerimeter=0;endArrow=classic;endFill=1;startSize=14;endSize=14;sourcePerimeterSpacing=8;targetPerimeterSpacing=8;" edge="1" parent="1" source="EXf6MUU_xvwRuJCJNYpw-17" target="EXf6MUU_xvwRuJCJNYpw-21">
          <mxGeometry relative="1" as="geometry" />
        </mxCell>
        <mxCell id="EXf6MUU_xvwRuJCJNYpw-17" value="&lt;b&gt;Cache&lt;/b&gt;" style="shape=cylinder3;whiteSpace=wrap;html=1;boundedLbl=1;backgroundOutline=1;size=15;labelBackgroundColor=none;sketch=1;hachureGap=4;fillColor=#d5e8d4;strokeColor=#82b366;" vertex="1" parent="1">
          <mxGeometry x="250" y="180" width="60" height="80" as="geometry" />
        </mxCell>
        <mxCell id="EXf6MUU_xvwRuJCJNYpw-20" value="" style="group" vertex="1" connectable="0" parent="1">
          <mxGeometry x="120" y="80" width="80" height="280" as="geometry" />
        </mxCell>
        <mxCell id="EXf6MUU_xvwRuJCJNYpw-1" value="API" style="rounded=0;whiteSpace=wrap;html=1;hachureGap=4;fillColor=#ffcc99;strokeColor=#36393d;sketch=1;fontStyle=1" vertex="1" parent="EXf6MUU_xvwRuJCJNYpw-20">
          <mxGeometry width="80" height="280" as="geometry" />
        </mxCell>
        <mxCell id="EXf6MUU_xvwRuJCJNYpw-3" value="&lt;b&gt;Order Process&lt;/b&gt;" style="text;html=1;align=center;verticalAlign=middle;whiteSpace=wrap;rounded=0;labelBackgroundColor=none;sketch=1;hachureGap=4;fillColor=none;" vertex="1" parent="EXf6MUU_xvwRuJCJNYpw-20">
          <mxGeometry x="10" y="10" width="60" height="30" as="geometry" />
        </mxCell>
        <mxCell id="EXf6MUU_xvwRuJCJNYpw-26" style="edgeStyle=orthogonalEdgeStyle;rounded=0;sketch=1;orthogonalLoop=1;jettySize=auto;html=1;exitX=0.5;exitY=0;exitDx=0;exitDy=0;exitPerimeter=0;entryX=0.5;entryY=1;entryDx=0;entryDy=0;startArrow=classic;startFill=1;endArrow=classic;endFill=1;startSize=14;endSize=14;sourcePerimeterSpacing=8;targetPerimeterSpacing=8;" edge="1" parent="1" source="EXf6MUU_xvwRuJCJNYpw-21" target="EXf6MUU_xvwRuJCJNYpw-25">
          <mxGeometry relative="1" as="geometry" />
        </mxCell>
        <mxCell id="EXf6MUU_xvwRuJCJNYpw-21" value="&lt;b&gt;DB&lt;/b&gt;" style="shape=cylinder3;whiteSpace=wrap;html=1;boundedLbl=1;backgroundOutline=1;size=15;labelBackgroundColor=none;sketch=1;hachureGap=4;fillColor=#d5e8d4;strokeColor=#82b366;" vertex="1" parent="1">
          <mxGeometry x="410" y="350" width="60" height="80" as="geometry" />
        </mxCell>
        <mxCell id="EXf6MUU_xvwRuJCJNYpw-23" style="edgeStyle=orthogonalEdgeStyle;rounded=0;sketch=1;orthogonalLoop=1;jettySize=auto;html=1;exitX=0.5;exitY=1;exitDx=0;exitDy=0;entryX=0;entryY=0;entryDx=0;entryDy=52.5;entryPerimeter=0;endArrow=classic;endFill=1;startSize=14;endSize=14;sourcePerimeterSpacing=8;targetPerimeterSpacing=8;" edge="1" parent="1" source="EXf6MUU_xvwRuJCJNYpw-1" target="EXf6MUU_xvwRuJCJNYpw-21">
          <mxGeometry relative="1" as="geometry" />
        </mxCell>
        <mxCell id="EXf6MUU_xvwRuJCJNYpw-28" style="edgeStyle=orthogonalEdgeStyle;rounded=0;sketch=1;orthogonalLoop=1;jettySize=auto;html=1;exitX=0.5;exitY=0;exitDx=0;exitDy=0;entryX=0.5;entryY=1;entryDx=0;entryDy=0;startArrow=none;startFill=0;endArrow=classic;endFill=1;startSize=14;endSize=14;sourcePerimeterSpacing=8;targetPerimeterSpacing=8;" edge="1" parent="1" source="EXf6MUU_xvwRuJCJNYpw-25" target="EXf6MUU_xvwRuJCJNYpw-27">
          <mxGeometry relative="1" as="geometry" />
        </mxCell>
        <mxCell id="EXf6MUU_xvwRuJCJNYpw-29" style="edgeStyle=orthogonalEdgeStyle;rounded=0;sketch=1;orthogonalLoop=1;jettySize=auto;html=1;exitX=1;exitY=0.5;exitDx=0;exitDy=0;entryX=0.16;entryY=0.55;entryDx=0;entryDy=0;entryPerimeter=0;startArrow=none;startFill=0;endArrow=classic;endFill=1;startSize=14;endSize=14;sourcePerimeterSpacing=8;targetPerimeterSpacing=8;" edge="1" parent="1" source="EXf6MUU_xvwRuJCJNYpw-25" target="EXf6MUU_xvwRuJCJNYpw-9">
          <mxGeometry relative="1" as="geometry" />
        </mxCell>
        <mxCell id="EXf6MUU_xvwRuJCJNYpw-25" value="&lt;b&gt;Batch&lt;br&gt;Process&lt;/b&gt;" style="rhombus;whiteSpace=wrap;html=1;labelBackgroundColor=none;sketch=1;hachureGap=4;fillColor=none;" vertex="1" parent="1">
          <mxGeometry x="400" y="180" width="80" height="80" as="geometry" />
        </mxCell>
        <mxCell id="EXf6MUU_xvwRuJCJNYpw-27" value="Data Warehouse&lt;br&gt;(DWH)" style="rounded=0;whiteSpace=wrap;html=1;hachureGap=4;fillColor=#e1d5e7;strokeColor=#9673a6;sketch=1;fontStyle=1" vertex="1" parent="1">
          <mxGeometry x="390" y="-10" width="100" height="80" as="geometry" />
        </mxCell>
        <mxCell id="EXf6MUU_xvwRuJCJNYpw-30" value="External API&#39;s" style="swimlane;fontStyle=0;childLayout=stackLayout;horizontal=1;startSize=30;horizontalStack=0;resizeParent=1;resizeParentMax=0;resizeLast=0;collapsible=1;marginBottom=0;labelBackgroundColor=none;sketch=1;hachureGap=4;fillColor=none;" vertex="1" parent="1">
          <mxGeometry x="509" y="260" width="140" height="120" as="geometry">
            <mxRectangle x="509" y="260" width="110" height="30" as="alternateBounds" />
          </mxGeometry>
        </mxCell>
        <mxCell id="EXf6MUU_xvwRuJCJNYpw-31" value="Mail API" style="text;strokeColor=none;fillColor=none;align=left;verticalAlign=middle;spacingLeft=4;spacingRight=4;overflow=hidden;points=[[0,0.5],[1,0.5]];portConstraint=eastwest;rotatable=0;labelBackgroundColor=none;sketch=1;hachureGap=4;" vertex="1" parent="EXf6MUU_xvwRuJCJNYpw-30">
          <mxGeometry y="30" width="140" height="30" as="geometry" />
        </mxCell>
        <mxCell id="EXf6MUU_xvwRuJCJNYpw-32" value="Warehouse API" style="text;strokeColor=none;fillColor=none;align=left;verticalAlign=middle;spacingLeft=4;spacingRight=4;overflow=hidden;points=[[0,0.5],[1,0.5]];portConstraint=eastwest;rotatable=0;labelBackgroundColor=none;sketch=1;hachureGap=4;" vertex="1" parent="EXf6MUU_xvwRuJCJNYpw-30">
          <mxGeometry y="60" width="140" height="30" as="geometry" />
        </mxCell>
        <mxCell id="EXf6MUU_xvwRuJCJNYpw-33" value="Stocks API" style="text;strokeColor=none;fillColor=none;align=left;verticalAlign=middle;spacingLeft=4;spacingRight=4;overflow=hidden;points=[[0,0.5],[1,0.5]];portConstraint=eastwest;rotatable=0;labelBackgroundColor=none;sketch=1;hachureGap=4;" vertex="1" parent="EXf6MUU_xvwRuJCJNYpw-30">
          <mxGeometry y="90" width="140" height="30" as="geometry" />
        </mxCell>
        <mxCell id="EXf6MUU_xvwRuJCJNYpw-34" value="Text" style="text;strokeColor=none;fillColor=none;html=1;align=center;verticalAlign=middle;whiteSpace=wrap;rounded=0;labelBackgroundColor=none;sketch=1;hachureGap=4;" vertex="1" parent="1">
          <mxGeometry x="120" y="210" width="60" height="30" as="geometry" />
        </mxCell>
        <mxCell id="EXf6MUU_xvwRuJCJNYpw-35" value="Text" style="text;strokeColor=none;fillColor=none;html=1;align=center;verticalAlign=middle;whiteSpace=wrap;rounded=0;labelBackgroundColor=none;sketch=1;hachureGap=4;" vertex="1" parent="1">
          <mxGeometry x="120" y="210" width="60" height="30" as="geometry" />
        </mxCell>
      </root>
    </mxGraphModel>
  </diagram>
</mxfile>
